<svg xmlns="http://www.w3.org/2000/svg" width="187" height="30" viewBox="0 0 187 30">
    <g fill="none" fill-rule="evenodd">
        <g fill="#000" fill-rule="nonzero">
            <g>
                <g>
                    <path d="M24.724 7.644c-2.27 0-4.778.955-7.406 2.866-1.075-1.91-2.986-2.866-5.494-2.866-2.388 0-4.777.836-7.166 2.628l-.597-2.628H0v20.902h5.016V14.57c1.672-1.91 3.345-2.747 4.897-2.747 1.792 0 2.867 1.195 2.867 3.583v13.139h5.255V14.57c1.672-1.791 3.344-2.747 4.897-2.747 1.911 0 2.986 1.075 2.986 3.464v13.258h5.255v-13.02c0-5.254-2.03-7.882-6.45-7.882zm20.901-.239c-7.047 0-10.39 3.583-10.39 10.63.118 7.047 3.582 10.63 10.39 10.63 7.047 0 10.391-3.583 10.391-10.63 0-7.047-3.464-10.63-10.39-10.63zm0 17.08c-3.464 0-5.136-2.03-5.255-6.57 0-4.3 1.791-6.33 5.255-6.33 3.583 0 5.255 2.27 5.255 6.33 0 4.3-1.91 6.57-5.255 6.57zM63.9 4.18h-4.06v18.633c0 3.702 1.671 5.494 5.135 5.494h4.3v-4.061h-1.672c-1.553 0-2.509-.956-2.509-2.986v-9.555h4.3V7.644h-4.777l-.717-3.464zm18.632 3.225c-7.047 0-10.39 3.583-10.39 10.63 0 7.047 3.463 10.63 10.39 10.63 6.928 0 10.391-3.583 10.391-10.63 0-7.047-3.344-10.63-10.39-10.63zm0 17.08c-3.583 0-5.255-2.03-5.255-6.57 0-4.3 1.792-6.33 5.255-6.33 3.583 0 5.256 2.27 5.256 6.33 0 4.3-1.792 6.57-5.256 6.57zm18.513-16.841h-4.06v20.902h5.135V14.452c1.553-1.672 3.344-2.628 5.255-2.628v-4.18c-2.03 0-3.941.836-5.733 2.628l-.597-2.628zm21.857 0c-2.508 0-4.897.717-7.047 2.27V0H110.6v28.546h5.136V14.452c1.791-1.672 3.702-2.628 5.494-2.628 2.389 0 3.464 1.075 3.464 3.464v13.258h5.255V15.407c.12-5.135-2.27-7.763-7.047-7.763zm26.276 13.974c-1.791 1.672-3.702 2.628-5.494 2.628-2.388 0-3.463-1.075-3.463-3.464V7.644h-5.256v13.138c0 5.136 2.39 7.883 7.167 7.883 2.627 0 5.135-.956 7.644-2.747l.597 2.747h4.06V7.644h-5.135v13.974h-.12zM159.45 0h5.255v4.18h-5.255V0zm0 7.644h5.255v20.902h-5.255V7.644zm20.066 8.122h-3.345c-1.552 0-2.508-.597-2.508-1.911 0-1.434 1.433-2.27 4.3-2.27 2.747 0 5.136.478 7.524 1.314V8.6c-2.388-.836-4.777-1.194-7.405-1.194-6.091 0-9.196 2.27-9.196 6.57 0 4.18 2.03 6.21 6.21 6.21h3.703c1.433 0 2.27.597 2.27 1.91 0 1.434-1.076 2.27-3.345 2.27-3.105 0-5.614-.478-8.002-1.314v4.42c2.388.836 4.897 1.194 7.763 1.194 5.853 0 8.838-2.27 8.838-6.57.12-4.299-2.269-6.33-6.807-6.33z" transform="translate(-255 -48) translate(167 48) translate(88 .5)"/>
                </g>
            </g>
        </g>
    </g>
</svg>
